# xmcd CD database file
#
# Track frame offsets:
#	150
#	14580
#	27397
#	39400
#	57415
#	70187
#	81802
#	95452
#	109285
#	121572
#	132285
#	144365
#	157062
#	171330
#	184482
#	198380
#	210332
#	225495
#	239650
#	253547
#
# Disc length: 3556 seconds
#
# Revision: 3
# Processed by: cddbd v1.5.2PL0 Copyright (c) Steve Scherf et al.
# Submitted via: CDex 1.51
#
DISCID=1a0de214,390de214
DTITLE=Various Artist - Boogie Woogie - The Gold Collection [CD 2)
DYEAR=1900
DGENRE=Boogie Woogie
TTITLE0=Harry James and Albert Ammons - Woo Woo (1939)
TTITLE1=Bob Zurke - Honky Tonk Train Blues (1939)
TTITLE2=Jimmy Yancey - Rolling The Stone (1939)
TTITLE3=Pete Johnson - Barrelhouse Breakdown (1939)
TTITLE4=Earl Hines - Boogie Woogie On St. Louis Blues (1939)
TTITLE5=Woody Herman - Chip's Boogie Woogie (1940)
TTITLE6=Pete Johnson - Death Ray Boogie (1940)
TTITLE7=Pete Johnson and Albert Ammons - Barrelhouse Boogie (1941)
TTITLE8=Pete Johnson and Albert Ammons - Sixth Avenue Express (1941)
TTITLE9=Count Basie - Basie Boogie
TTITLE10=Jay McShann - Hold'em Hootie (1941)
TTITLE11=Andy Kirk - Boogie Woogie Cocktail (1942)
TTITLE12=Lionel Hampton - Tempo's Boogie (1942)
TTITLE13=Ella Fitzgerald and The Ink Spots - Cow Cow Boogie
TTITLE14=Albert Ammons - The Boogie Rocks (1944)
TTITLE15=Louis Jordan - Caldonia Boogie (1945)
TTITLE16=Arthur Smith - Guitar Boogie (1945)
TTITLE17=Sammy Price - Boogie With Big Sid (1945)
TTITLE18=T-Bone Walker - T-Bone Boogie (1945)
TTITLE19=Big Maceo - Chicago Breakdown (1945)
EXTD=
EXTT0=
EXTT1=
EXTT2=
EXTT3=
EXTT4=
EXTT5=
EXTT6=
EXTT7=
EXTT8=
EXTT9=
EXTT10=
EXTT11=
EXTT12=
EXTT13=
EXTT14=
EXTT15=
EXTT16=
EXTT17=
EXTT18=
EXTT19=
PLAYORDER=
